G04 ================== begin FILE IDENTIFICATION RECORD ==================*
G04 Layout Name:  gps_breakout.brd*
G04 Film Name:    ASSEMBLY*
G04 File Format:  Gerber RS274X*
G04 File Origin:  Cadence Allegro 17.2-S071*
G04 Origin Date:  Thu Oct 22 15:29:20 2020*
G04 *
G04 Layer:  REF DES/ASSEMBLY_TOP*
G04 Layer:  PIN/TOP*
G04 Layer:  PACKAGE GEOMETRY/ASSEMBLY_TOP*
G04 Layer:  DRAWING FORMAT/OUTLINE*
G04 Layer:  DRAWING FORMAT/TITLE_BLOCK*
G04 Layer:  DRAWING FORMAT/TITLE_DATA*
G04 Layer:  DRAWING FORMAT/REVISION_BLOCK*
G04 Layer:  DRAWING FORMAT/REVISION_DATA*
G04 Layer:  BOARD GEOMETRY/DESIGN_OUTLINE*
G04 *
G04 Offset:    (0.0000 0.0000)*
G04 Mirror:    No*
G04 Mode:      Positive*
G04 Rotation:  0*
G04 FullContactRelief:  No*
G04 UndefLineWidth:     0.1270*
G04 ================== end FILE IDENTIFICATION RECORD ====================*
%FSLAX24Y24*MOIN*%
%IR0*IPPOS*OFA0.00000B0.00000*MIA0B0*SFA1.00000B1.00000*%
%ADD12C,.03937*%
%ADD11R,.035433X.027559*%
%ADD14R,.03937X.03937*%
%ADD10R,.0345X.028*%
%ADD13R,.023618X.019689*%
%ADD15C,.006*%
%ADD16C,.005*%
G75*
%LPD*%
G75*
G54D10*
X1284Y1936D03*
Y2369D03*
Y2802D03*
Y3235D03*
Y3668D03*
Y4101D03*
Y4534D03*
Y4967D03*
Y5400D03*
X5159Y2802D03*
Y2369D03*
Y1936D03*
Y5400D03*
Y4967D03*
Y4534D03*
Y4101D03*
Y3668D03*
Y3235D03*
G54D11*
X358Y3807D03*
Y3295D03*
X5780Y4535D03*
Y4024D03*
X6457Y5161D03*
Y4650D03*
G54D12*
X7709Y374D03*
Y1555D03*
Y2736D03*
Y3917D03*
Y5098D03*
Y6280D03*
G54D13*
X5787Y5016D03*
Y5469D03*
G54D14*
X7709Y7461D03*
G54D15*
G01X270Y3455D02*
Y3648D01*
G01X446D02*
Y3455D01*
G01X5691Y4183D02*
Y4376D01*
G01X5868D02*
Y4183D01*
G01X6369Y4809D02*
Y5002D01*
G01X6545D02*
Y4809D01*
G54D16*
G01X-20135Y-43581D02*
Y41419D01*
X90615D01*
Y-43581D01*
X-20135D01*
G01X-17185Y-40931D02*
Y39069D01*
X87315D01*
Y-40931D01*
X-17185D01*
G01X0Y0D02*
Y7835D01*
X8465D01*
Y0D01*
X0D01*
G01X5151Y1658D02*
X1291D01*
G01Y1838D02*
Y1658D01*
G01Y2466D02*
Y2704D01*
G01Y2033D02*
Y2271D01*
G01Y2704D02*
G03Y2899I0J97D01*
G01Y2271D02*
G03Y2466I0J98D01*
G01Y1838D02*
G03Y2033I0J98D01*
G01X5151Y5678D02*
X1291D01*
G01Y5498D02*
Y5678D01*
G01Y5065D02*
Y5303D01*
G01Y4632D02*
Y4870D01*
G01Y4199D02*
Y4437D01*
G01Y3765D02*
Y4004D01*
G01Y3332D02*
Y3570D01*
G01Y2899D02*
Y3137D01*
G01Y5303D02*
G03Y5498I0J97D01*
G01Y4870D02*
G03Y5065I0J98D01*
G01Y4437D02*
G03Y4632I0J97D01*
G01Y4004D02*
G03Y4199I0J98D01*
G01Y3570D02*
G03Y3765I0J97D01*
G01Y3137D02*
G03Y3332I0J97D01*
G01X478Y3333D02*
X242D01*
Y3451D01*
X478D01*
Y3333D01*
G01Y3653D02*
X242D01*
Y3771D01*
X478D01*
Y3653D01*
G01X5151Y1838D02*
Y1658D01*
G01Y2466D02*
Y2704D01*
G01Y2033D02*
Y2271D01*
G01Y2899D02*
G03Y2704I0J-97D01*
G01Y2466D02*
G03Y2271I0J-98D01*
G01Y2033D02*
G03Y1838I0J-98D01*
G01X5051Y1658D02*
X5151Y1758D01*
G01X7118Y177D02*
X8299D01*
Y7657D01*
X7118D01*
Y177D01*
G01X5669Y5441D02*
Y5047D01*
X5906D01*
Y5441D01*
X5669D01*
G01X5151Y5498D02*
Y5678D01*
G01Y5065D02*
Y5303D01*
G01Y4632D02*
Y4870D01*
G01Y4199D02*
Y4437D01*
G01Y3765D02*
Y4004D01*
G01Y3332D02*
Y3570D01*
G01Y2899D02*
Y3137D01*
G01Y5498D02*
G03Y5303I0J-97D01*
G01Y5065D02*
G03Y4870I0J-97D01*
G01Y4632D02*
G03Y4437I0J-98D01*
G01Y4199D02*
G03Y4004I0J-97D01*
G01Y3765D02*
G03Y3570I0J-97D01*
G01Y3332D02*
G03Y3137I0J-97D01*
G01X5900Y4061D02*
X5663D01*
Y4180D01*
X5900D01*
Y4061D01*
G01Y4381D02*
X5663D01*
Y4500D01*
X5900D01*
Y4381D01*
G01X6577Y4687D02*
X6341D01*
Y4806D01*
X6577D01*
Y4687D01*
G01Y5007D02*
X6341D01*
Y5126D01*
X6577D01*
Y5007D01*
G01X9365Y-40831D02*
Y-22831D01*
X87365D01*
G01X10185Y-35081D02*
Y-34581D01*
X10425D01*
G01X10337Y-34823D02*
X10185D01*
G01X10688Y-35081D02*
Y-34581D01*
X10847D01*
X10897Y-34606D01*
X10929Y-34640D01*
X10942Y-34706D01*
X10929Y-34773D01*
X10891Y-34815D01*
X10847Y-34840D01*
X10688D01*
G01X10847D02*
X10942Y-35081D01*
G01X11167D02*
X11325Y-34581D01*
X11483Y-35081D01*
G01X11426Y-34906D02*
X11224D01*
G01X11974Y-34623D02*
X11936Y-34598D01*
X11892Y-34581D01*
X11841D01*
X11784Y-34606D01*
X11740Y-34648D01*
X11708Y-34698D01*
X11683Y-34781D01*
X11677Y-34856D01*
X11689Y-34931D01*
X11708Y-34981D01*
X11746Y-35031D01*
X11791Y-35065D01*
X11835Y-35081D01*
X11879D01*
X11924Y-35065D01*
X11962Y-35040D01*
X11993Y-35006D01*
G01X12345Y-34581D02*
Y-35081D01*
G01X12199Y-34581D02*
X12491D01*
G01X12779D02*
X12931D01*
G01X12855D02*
Y-35081D01*
G01X12779D02*
X12931D01*
G01X13365D02*
X13314Y-35073D01*
X13270Y-35040D01*
X13232Y-34990D01*
X13207Y-34931D01*
X13194Y-34865D01*
Y-34798D01*
X13207Y-34731D01*
X13232Y-34673D01*
X13270Y-34623D01*
X13314Y-34590D01*
X13365Y-34581D01*
X13416Y-34590D01*
X13460Y-34623D01*
X13498Y-34673D01*
X13523Y-34731D01*
X13536Y-34798D01*
Y-34865D01*
X13523Y-34931D01*
X13498Y-34990D01*
X13460Y-35040D01*
X13416Y-35073D01*
X13365Y-35081D01*
G01X13729D02*
Y-34581D01*
X14021Y-35081D01*
Y-34581D01*
G01X14252Y-35015D02*
X14303Y-35056D01*
X14360Y-35081D01*
X14410D01*
X14461Y-35056D01*
X14499Y-35015D01*
X14518Y-34956D01*
X14505Y-34898D01*
X14474Y-34848D01*
X14417Y-34815D01*
X14341Y-34798D01*
X14296Y-34765D01*
X14277Y-34706D01*
X14290Y-34648D01*
X14322Y-34606D01*
X14366Y-34581D01*
X14410D01*
X14455Y-34598D01*
X14493Y-34640D01*
G01X15335Y-34915D02*
X15487D01*
G01X15405Y-34806D02*
Y-35023D01*
G01X10147Y-33581D02*
X10305Y-33081D01*
X10463Y-33581D01*
G01X10406Y-33406D02*
X10204D01*
G01X10669Y-33581D02*
Y-33081D01*
X10961Y-33581D01*
Y-33081D01*
G01X11363Y-33331D02*
X11490D01*
Y-33481D01*
X11452Y-33531D01*
X11407Y-33565D01*
X11344Y-33581D01*
X11281Y-33565D01*
X11236Y-33531D01*
X11198Y-33481D01*
X11173Y-33423D01*
X11160Y-33356D01*
Y-33298D01*
X11173Y-33248D01*
X11198Y-33190D01*
X11236Y-33140D01*
X11274Y-33106D01*
X11325Y-33081D01*
X11369D01*
X11420Y-33098D01*
X11458Y-33131D01*
G01X11708Y-33081D02*
Y-33581D01*
X11962D01*
G01X12472D02*
X12218D01*
Y-33081D01*
X12472D01*
G01X12370Y-33323D02*
X12218D01*
G01X12722Y-33515D02*
X12773Y-33556D01*
X12830Y-33581D01*
X12880D01*
X12931Y-33556D01*
X12969Y-33515D01*
X12988Y-33456D01*
X12975Y-33398D01*
X12944Y-33348D01*
X12887Y-33315D01*
X12811Y-33298D01*
X12766Y-33265D01*
X12747Y-33206D01*
X12760Y-33148D01*
X12792Y-33106D01*
X12836Y-33081D01*
X12880D01*
X12925Y-33098D01*
X12963Y-33140D01*
G01X13805Y-33415D02*
X13957D01*
G01X13875Y-33306D02*
Y-33523D01*
G01X10166Y-31981D02*
X10204Y-32040D01*
X10254Y-32073D01*
X10311Y-32081D01*
X10362Y-32073D01*
X10413Y-32031D01*
X10444Y-31981D01*
X10451Y-31931D01*
X10438Y-31873D01*
X10394Y-31831D01*
X10349Y-31815D01*
X10292D01*
G01X10349D02*
X10387Y-31790D01*
X10419Y-31748D01*
X10432Y-31698D01*
X10419Y-31648D01*
X10387Y-31606D01*
X10330Y-31581D01*
X10273Y-31590D01*
X10216Y-31623D01*
G01X11198Y-32081D02*
Y-31581D01*
X11350D01*
X11401Y-31606D01*
X11439Y-31665D01*
X11452Y-31731D01*
X11439Y-31798D01*
X11407Y-31848D01*
X11350Y-31873D01*
X11198D01*
G01X11708Y-31581D02*
Y-32081D01*
X11962D01*
G01X12716D02*
Y-31581D01*
X12842D01*
X12893Y-31606D01*
X12931Y-31640D01*
X12963Y-31690D01*
X12988Y-31748D01*
X12994Y-31831D01*
X12988Y-31915D01*
X12963Y-31973D01*
X12931Y-32023D01*
X12893Y-32056D01*
X12842Y-32081D01*
X12716D01*
G01X13492D02*
X13238D01*
Y-31581D01*
X13492D01*
G01X13390Y-31823D02*
X13238D01*
G01X14014Y-31623D02*
X13976Y-31598D01*
X13932Y-31581D01*
X13881D01*
X13824Y-31606D01*
X13780Y-31648D01*
X13748Y-31698D01*
X13723Y-31781D01*
X13717Y-31856D01*
X13729Y-31931D01*
X13748Y-31981D01*
X13786Y-32031D01*
X13831Y-32065D01*
X13875Y-32081D01*
X13919D01*
X13964Y-32065D01*
X14002Y-32040D01*
X14033Y-32006D01*
G01X14309Y-31581D02*
X14461D01*
G01X14385D02*
Y-32081D01*
G01X14309D02*
X14461D01*
G01X14730D02*
Y-31581D01*
X14895Y-31998D01*
X15060Y-31581D01*
Y-32081D01*
G01X15247D02*
X15405Y-31581D01*
X15563Y-32081D01*
G01X15506Y-31906D02*
X15304D01*
G01X15788Y-31581D02*
Y-32081D01*
X16042D01*
G01X16292Y-32015D02*
X16343Y-32056D01*
X16400Y-32081D01*
X16450D01*
X16501Y-32056D01*
X16539Y-32015D01*
X16558Y-31956D01*
X16545Y-31898D01*
X16514Y-31848D01*
X16457Y-31815D01*
X16381Y-31798D01*
X16336Y-31765D01*
X16317Y-31706D01*
X16330Y-31648D01*
X16362Y-31606D01*
X16406Y-31581D01*
X16450D01*
X16495Y-31598D01*
X16533Y-31640D01*
G01X17375Y-31915D02*
X17527D01*
G01X17445Y-31806D02*
Y-32023D01*
G01X10185Y-30165D02*
X10223Y-30115D01*
X10267Y-30090D01*
X10318Y-30081D01*
X10381Y-30098D01*
X10425Y-30140D01*
X10438Y-30190D01*
X10432Y-30240D01*
X10406Y-30281D01*
X10280Y-30365D01*
X10223Y-30423D01*
X10185Y-30506D01*
X10172Y-30581D01*
X10438D01*
G01X11198D02*
Y-30081D01*
X11350D01*
X11401Y-30106D01*
X11439Y-30165D01*
X11452Y-30231D01*
X11439Y-30298D01*
X11407Y-30348D01*
X11350Y-30373D01*
X11198D01*
G01X11708Y-30081D02*
Y-30581D01*
X11962D01*
G01X12716D02*
Y-30081D01*
X12842D01*
X12893Y-30106D01*
X12931Y-30140D01*
X12963Y-30190D01*
X12988Y-30248D01*
X12994Y-30331D01*
X12988Y-30415D01*
X12963Y-30473D01*
X12931Y-30523D01*
X12893Y-30556D01*
X12842Y-30581D01*
X12716D01*
G01X13492D02*
X13238D01*
Y-30081D01*
X13492D01*
G01X13390Y-30323D02*
X13238D01*
G01X14014Y-30123D02*
X13976Y-30098D01*
X13932Y-30081D01*
X13881D01*
X13824Y-30106D01*
X13780Y-30148D01*
X13748Y-30198D01*
X13723Y-30281D01*
X13717Y-30356D01*
X13729Y-30431D01*
X13748Y-30481D01*
X13786Y-30531D01*
X13831Y-30565D01*
X13875Y-30581D01*
X13919D01*
X13964Y-30565D01*
X14002Y-30540D01*
X14033Y-30506D01*
G01X14309Y-30081D02*
X14461D01*
G01X14385D02*
Y-30581D01*
G01X14309D02*
X14461D01*
G01X14730D02*
Y-30081D01*
X14895Y-30498D01*
X15060Y-30081D01*
Y-30581D01*
G01X15247D02*
X15405Y-30081D01*
X15563Y-30581D01*
G01X15506Y-30406D02*
X15304D01*
G01X15788Y-30081D02*
Y-30581D01*
X16042D01*
G01X16292Y-30515D02*
X16343Y-30556D01*
X16400Y-30581D01*
X16450D01*
X16501Y-30556D01*
X16539Y-30515D01*
X16558Y-30456D01*
X16545Y-30398D01*
X16514Y-30348D01*
X16457Y-30315D01*
X16381Y-30298D01*
X16336Y-30265D01*
X16317Y-30206D01*
X16330Y-30148D01*
X16362Y-30106D01*
X16406Y-30081D01*
X16450D01*
X16495Y-30098D01*
X16533Y-30140D01*
G01X17375Y-30415D02*
X17527D01*
G01X17445Y-30306D02*
Y-30523D01*
G01X10305Y-28581D02*
Y-29081D01*
G01X10159Y-28581D02*
X10451D01*
G01X10815Y-29081D02*
X10764Y-29073D01*
X10720Y-29040D01*
X10682Y-28990D01*
X10657Y-28931D01*
X10644Y-28865D01*
Y-28798D01*
X10657Y-28731D01*
X10682Y-28673D01*
X10720Y-28623D01*
X10764Y-28590D01*
X10815Y-28581D01*
X10866Y-28590D01*
X10910Y-28623D01*
X10948Y-28673D01*
X10973Y-28731D01*
X10986Y-28798D01*
Y-28865D01*
X10973Y-28931D01*
X10948Y-28990D01*
X10910Y-29040D01*
X10866Y-29073D01*
X10815Y-29081D01*
G01X11198Y-28581D02*
Y-29081D01*
X11452D01*
G01X11962D02*
X11708D01*
Y-28581D01*
X11962D01*
G01X11860Y-28823D02*
X11708D01*
G01X12218Y-29081D02*
Y-28581D01*
X12377D01*
X12427Y-28606D01*
X12459Y-28640D01*
X12472Y-28706D01*
X12459Y-28773D01*
X12421Y-28815D01*
X12377Y-28840D01*
X12218D01*
G01X12377D02*
X12472Y-29081D01*
G01X12697D02*
X12855Y-28581D01*
X13013Y-29081D01*
G01X12956Y-28906D02*
X12754D01*
G01X13219Y-29081D02*
Y-28581D01*
X13511Y-29081D01*
Y-28581D01*
G01X14014Y-28623D02*
X13976Y-28598D01*
X13932Y-28581D01*
X13881D01*
X13824Y-28606D01*
X13780Y-28648D01*
X13748Y-28698D01*
X13723Y-28781D01*
X13717Y-28856D01*
X13729Y-28931D01*
X13748Y-28981D01*
X13786Y-29031D01*
X13831Y-29065D01*
X13875Y-29081D01*
X13919D01*
X13964Y-29065D01*
X14002Y-29040D01*
X14033Y-29006D01*
G01X14512Y-29081D02*
X14258D01*
Y-28581D01*
X14512D01*
G01X14410Y-28823D02*
X14258D01*
G01X14762Y-29015D02*
X14813Y-29056D01*
X14870Y-29081D01*
X14920D01*
X14971Y-29056D01*
X15009Y-29015D01*
X15028Y-28956D01*
X15015Y-28898D01*
X14984Y-28848D01*
X14927Y-28815D01*
X14851Y-28798D01*
X14806Y-28765D01*
X14787Y-28706D01*
X14800Y-28648D01*
X14832Y-28606D01*
X14876Y-28581D01*
X14920D01*
X14965Y-28598D01*
X15003Y-28640D01*
G01X15915Y-29081D02*
X15864Y-29073D01*
X15820Y-29040D01*
X15782Y-28990D01*
X15757Y-28931D01*
X15744Y-28865D01*
Y-28798D01*
X15757Y-28731D01*
X15782Y-28673D01*
X15820Y-28623D01*
X15864Y-28590D01*
X15915Y-28581D01*
X15966Y-28590D01*
X16010Y-28623D01*
X16048Y-28673D01*
X16073Y-28731D01*
X16086Y-28798D01*
Y-28865D01*
X16073Y-28931D01*
X16048Y-28990D01*
X16010Y-29040D01*
X15966Y-29073D01*
X15915Y-29081D01*
G01X16279D02*
Y-28581D01*
X16571Y-29081D01*
Y-28581D01*
G01X16935Y-29098D02*
X16922Y-29090D01*
Y-29073D01*
X16935Y-29065D01*
X16948Y-29073D01*
Y-29090D01*
X16935Y-29098D01*
G01Y-28873D02*
X16922Y-28865D01*
Y-28848D01*
X16935Y-28840D01*
X16948Y-28848D01*
Y-28865D01*
X16935Y-28873D01*
G01X10166Y-27331D02*
Y-26831D01*
X10292D01*
X10343Y-26856D01*
X10381Y-26890D01*
X10413Y-26940D01*
X10438Y-26998D01*
X10444Y-27081D01*
X10438Y-27165D01*
X10413Y-27223D01*
X10381Y-27273D01*
X10343Y-27306D01*
X10292Y-27331D01*
X10166D01*
G01X10739Y-26831D02*
X10891D01*
G01X10815D02*
Y-27331D01*
G01X10739D02*
X10891D01*
G01X11160D02*
Y-26831D01*
X11325Y-27248D01*
X11490Y-26831D01*
Y-27331D01*
G01X11962D02*
X11708D01*
Y-26831D01*
X11962D01*
G01X11860Y-27073D02*
X11708D01*
G01X12199Y-27331D02*
Y-26831D01*
X12491Y-27331D01*
Y-26831D01*
G01X12722Y-27265D02*
X12773Y-27306D01*
X12830Y-27331D01*
X12880D01*
X12931Y-27306D01*
X12969Y-27265D01*
X12988Y-27206D01*
X12975Y-27148D01*
X12944Y-27098D01*
X12887Y-27065D01*
X12811Y-27048D01*
X12766Y-27015D01*
X12747Y-26956D01*
X12760Y-26898D01*
X12792Y-26856D01*
X12836Y-26831D01*
X12880D01*
X12925Y-26848D01*
X12963Y-26890D01*
G01X13289Y-26831D02*
X13441D01*
G01X13365D02*
Y-27331D01*
G01X13289D02*
X13441D01*
G01X13875D02*
X13824Y-27323D01*
X13780Y-27290D01*
X13742Y-27240D01*
X13717Y-27181D01*
X13704Y-27115D01*
Y-27048D01*
X13717Y-26981D01*
X13742Y-26923D01*
X13780Y-26873D01*
X13824Y-26840D01*
X13875Y-26831D01*
X13926Y-26840D01*
X13970Y-26873D01*
X14008Y-26923D01*
X14033Y-26981D01*
X14046Y-27048D01*
Y-27115D01*
X14033Y-27181D01*
X14008Y-27240D01*
X13970Y-27290D01*
X13926Y-27323D01*
X13875Y-27331D01*
G01X14239D02*
Y-26831D01*
X14531Y-27331D01*
Y-26831D01*
G01X14762Y-27265D02*
X14813Y-27306D01*
X14870Y-27331D01*
X14920D01*
X14971Y-27306D01*
X15009Y-27265D01*
X15028Y-27206D01*
X15015Y-27148D01*
X14984Y-27098D01*
X14927Y-27065D01*
X14851Y-27048D01*
X14806Y-27015D01*
X14787Y-26956D01*
X14800Y-26898D01*
X14832Y-26856D01*
X14876Y-26831D01*
X14920D01*
X14965Y-26848D01*
X15003Y-26890D01*
G01X15757Y-27331D02*
X15915Y-26831D01*
X16073Y-27331D01*
G01X16016Y-27156D02*
X15814D01*
G01X16298Y-27331D02*
Y-26831D01*
X16457D01*
X16507Y-26856D01*
X16539Y-26890D01*
X16552Y-26956D01*
X16539Y-27023D01*
X16501Y-27065D01*
X16457Y-27090D01*
X16298D01*
G01X16457D02*
X16552Y-27331D01*
G01X17062D02*
X16808D01*
Y-26831D01*
X17062D01*
G01X16960Y-27073D02*
X16808D01*
G01X17879Y-26831D02*
X18031D01*
G01X17955D02*
Y-27331D01*
G01X17879D02*
X18031D01*
G01X18319D02*
Y-26831D01*
X18611Y-27331D01*
Y-26831D01*
G01X19409D02*
X19561D01*
G01X19485D02*
Y-27331D01*
G01X19409D02*
X19561D01*
G01X19849D02*
Y-26831D01*
X20141Y-27331D01*
Y-26831D01*
G01X20644Y-26873D02*
X20606Y-26848D01*
X20562Y-26831D01*
X20511D01*
X20454Y-26856D01*
X20410Y-26898D01*
X20378Y-26948D01*
X20353Y-27031D01*
X20347Y-27106D01*
X20359Y-27181D01*
X20378Y-27231D01*
X20416Y-27281D01*
X20461Y-27315D01*
X20505Y-27331D01*
X20549D01*
X20594Y-27315D01*
X20632Y-27290D01*
X20663Y-27256D01*
G01X20882Y-27331D02*
Y-26831D01*
G01X21148D02*
Y-27331D01*
G01Y-27081D02*
X20882D01*
G01X21652Y-27331D02*
X21398D01*
Y-26831D01*
X21652D01*
G01X21550Y-27073D02*
X21398D01*
G01X21902Y-27265D02*
X21953Y-27306D01*
X22010Y-27331D01*
X22060D01*
X22111Y-27306D01*
X22149Y-27265D01*
X22168Y-27206D01*
X22155Y-27148D01*
X22124Y-27098D01*
X22067Y-27065D01*
X21991Y-27048D01*
X21946Y-27015D01*
X21927Y-26956D01*
X21940Y-26898D01*
X21972Y-26856D01*
X22016Y-26831D01*
X22060D01*
X22105Y-26848D01*
X22143Y-26890D01*
G01X10166Y-24081D02*
Y-24440D01*
X10191Y-24515D01*
X10242Y-24565D01*
X10305Y-24581D01*
X10368Y-24565D01*
X10419Y-24515D01*
X10444Y-24440D01*
Y-24081D01*
G01X10669Y-24581D02*
Y-24081D01*
X10961Y-24581D01*
Y-24081D01*
G01X11198D02*
Y-24581D01*
X11452D01*
G01X11962D02*
X11708D01*
Y-24081D01*
X11962D01*
G01X11860Y-24323D02*
X11708D01*
G01X12212Y-24515D02*
X12263Y-24556D01*
X12320Y-24581D01*
X12370D01*
X12421Y-24556D01*
X12459Y-24515D01*
X12478Y-24456D01*
X12465Y-24398D01*
X12434Y-24348D01*
X12377Y-24315D01*
X12301Y-24298D01*
X12256Y-24265D01*
X12237Y-24206D01*
X12250Y-24148D01*
X12282Y-24106D01*
X12326Y-24081D01*
X12370D01*
X12415Y-24098D01*
X12453Y-24140D01*
G01X12722Y-24515D02*
X12773Y-24556D01*
X12830Y-24581D01*
X12880D01*
X12931Y-24556D01*
X12969Y-24515D01*
X12988Y-24456D01*
X12975Y-24398D01*
X12944Y-24348D01*
X12887Y-24315D01*
X12811Y-24298D01*
X12766Y-24265D01*
X12747Y-24206D01*
X12760Y-24148D01*
X12792Y-24106D01*
X12836Y-24081D01*
X12880D01*
X12925Y-24098D01*
X12963Y-24140D01*
G01X13875Y-24581D02*
X13824Y-24573D01*
X13780Y-24540D01*
X13742Y-24490D01*
X13717Y-24431D01*
X13704Y-24365D01*
Y-24298D01*
X13717Y-24231D01*
X13742Y-24173D01*
X13780Y-24123D01*
X13824Y-24090D01*
X13875Y-24081D01*
X13926Y-24090D01*
X13970Y-24123D01*
X14008Y-24173D01*
X14033Y-24231D01*
X14046Y-24298D01*
Y-24365D01*
X14033Y-24431D01*
X14008Y-24490D01*
X13970Y-24540D01*
X13926Y-24573D01*
X13875Y-24581D01*
G01X14385Y-24081D02*
Y-24581D01*
G01X14239Y-24081D02*
X14531D01*
G01X14762Y-24581D02*
Y-24081D01*
G01X15028D02*
Y-24581D01*
G01Y-24331D02*
X14762D01*
G01X15532Y-24581D02*
X15278D01*
Y-24081D01*
X15532D01*
G01X15430Y-24323D02*
X15278D01*
G01X15788Y-24581D02*
Y-24081D01*
X15947D01*
X15997Y-24106D01*
X16029Y-24140D01*
X16042Y-24206D01*
X16029Y-24273D01*
X15991Y-24315D01*
X15947Y-24340D01*
X15788D01*
G01X15947D02*
X16042Y-24581D01*
G01X16235Y-24081D02*
X16324Y-24581D01*
X16425Y-24081D01*
X16526Y-24581D01*
X16615Y-24081D01*
G01X16859D02*
X17011D01*
G01X16935D02*
Y-24581D01*
G01X16859D02*
X17011D01*
G01X17312Y-24515D02*
X17363Y-24556D01*
X17420Y-24581D01*
X17470D01*
X17521Y-24556D01*
X17559Y-24515D01*
X17578Y-24456D01*
X17565Y-24398D01*
X17534Y-24348D01*
X17477Y-24315D01*
X17401Y-24298D01*
X17356Y-24265D01*
X17337Y-24206D01*
X17350Y-24148D01*
X17382Y-24106D01*
X17426Y-24081D01*
X17470D01*
X17515Y-24098D01*
X17553Y-24140D01*
G01X18082Y-24581D02*
X17828D01*
Y-24081D01*
X18082D01*
G01X17980Y-24323D02*
X17828D01*
G01X18842Y-24515D02*
X18893Y-24556D01*
X18950Y-24581D01*
X19000D01*
X19051Y-24556D01*
X19089Y-24515D01*
X19108Y-24456D01*
X19095Y-24398D01*
X19064Y-24348D01*
X19007Y-24315D01*
X18931Y-24298D01*
X18886Y-24265D01*
X18867Y-24206D01*
X18880Y-24148D01*
X18912Y-24106D01*
X18956Y-24081D01*
X19000D01*
X19045Y-24098D01*
X19083Y-24140D01*
G01X19358Y-24581D02*
Y-24081D01*
X19510D01*
X19561Y-24106D01*
X19599Y-24165D01*
X19612Y-24231D01*
X19599Y-24298D01*
X19567Y-24348D01*
X19510Y-24373D01*
X19358D01*
G01X20122Y-24581D02*
X19868D01*
Y-24081D01*
X20122D01*
G01X20020Y-24323D02*
X19868D01*
G01X20644Y-24123D02*
X20606Y-24098D01*
X20562Y-24081D01*
X20511D01*
X20454Y-24106D01*
X20410Y-24148D01*
X20378Y-24198D01*
X20353Y-24281D01*
X20347Y-24356D01*
X20359Y-24431D01*
X20378Y-24481D01*
X20416Y-24531D01*
X20461Y-24565D01*
X20505Y-24581D01*
X20549D01*
X20594Y-24565D01*
X20632Y-24540D01*
X20663Y-24506D01*
G01X20939Y-24081D02*
X21091D01*
G01X21015D02*
Y-24581D01*
G01X20939D02*
X21091D01*
G01X21405D02*
Y-24081D01*
X21645D01*
G01X21557Y-24323D02*
X21405D01*
G01X21959Y-24081D02*
X22111D01*
G01X22035D02*
Y-24581D01*
G01X21959D02*
X22111D01*
G01X22672D02*
X22418D01*
Y-24081D01*
X22672D01*
G01X22570Y-24323D02*
X22418D01*
G01X22916Y-24581D02*
Y-24081D01*
X23042D01*
X23093Y-24106D01*
X23131Y-24140D01*
X23163Y-24190D01*
X23188Y-24248D01*
X23194Y-24331D01*
X23188Y-24415D01*
X23163Y-24473D01*
X23131Y-24523D01*
X23093Y-24556D01*
X23042Y-24581D01*
X22916D01*
G01X9365Y-25831D02*
X45365D01*
G01X24365Y-22831D02*
Y-40831D01*
G01Y-37331D02*
X45365D01*
G01X24365Y-34831D02*
X45365D01*
G01X24365Y-31831D02*
X45365D01*
G01X24365Y-28831D02*
X45365D01*
G01X28685Y-24498D02*
X28748Y-24550D01*
X28819Y-24581D01*
X28881D01*
X28944Y-24550D01*
X28991Y-24498D01*
X29014Y-24424D01*
X28999Y-24351D01*
X28960Y-24288D01*
X28889Y-24245D01*
X28795Y-24224D01*
X28740Y-24183D01*
X28717Y-24109D01*
X28732Y-24036D01*
X28772Y-23983D01*
X28826Y-23951D01*
X28881D01*
X28936Y-23972D01*
X28983Y-24025D01*
G01X29386Y-23951D02*
X29574D01*
G01X29480D02*
Y-24581D01*
G01X29386D02*
X29574D01*
G01X30157Y-24266D02*
X30314D01*
Y-24456D01*
X30267Y-24519D01*
X30212Y-24561D01*
X30133Y-24581D01*
X30055Y-24561D01*
X30000Y-24519D01*
X29953Y-24456D01*
X29922Y-24382D01*
X29906Y-24298D01*
Y-24224D01*
X29922Y-24161D01*
X29953Y-24088D01*
X30000Y-24025D01*
X30047Y-23983D01*
X30110Y-23951D01*
X30165D01*
X30227Y-23972D01*
X30274Y-24014D01*
G01X30560Y-24581D02*
Y-23951D01*
X30920Y-24581D01*
Y-23951D01*
G01X31174Y-24581D02*
X31370Y-23951D01*
X31566Y-24581D01*
G01X31495Y-24361D02*
X31245D01*
G01X32000Y-23951D02*
Y-24581D01*
G01X31820Y-23951D02*
X32180D01*
G01X32458D02*
Y-24403D01*
X32489Y-24498D01*
X32552Y-24561D01*
X32630Y-24581D01*
X32708Y-24561D01*
X32771Y-24498D01*
X32802Y-24403D01*
Y-23951D01*
G01X33103Y-24581D02*
Y-23951D01*
X33299D01*
X33362Y-23983D01*
X33401Y-24025D01*
X33417Y-24109D01*
X33401Y-24193D01*
X33354Y-24245D01*
X33299Y-24277D01*
X33103D01*
G01X33299D02*
X33417Y-24581D01*
G01X34047D02*
X33733D01*
Y-23951D01*
X34047D01*
G01X33921Y-24256D02*
X33733D01*
G01X34355Y-24498D02*
X34418Y-24550D01*
X34489Y-24581D01*
X34551D01*
X34614Y-24550D01*
X34661Y-24498D01*
X34684Y-24424D01*
X34669Y-24351D01*
X34630Y-24288D01*
X34559Y-24245D01*
X34465Y-24224D01*
X34410Y-24183D01*
X34387Y-24109D01*
X34402Y-24036D01*
X34442Y-23983D01*
X34496Y-23951D01*
X34551D01*
X34606Y-23972D01*
X34653Y-24025D01*
G01X37365Y-34581D02*
Y-34831D01*
G01Y-34581D02*
Y-22831D01*
G01Y29919D02*
Y26919D01*
G01Y38919D02*
Y29919D01*
G01Y32919D02*
X87365D01*
G01X37365Y35919D02*
X87365D01*
G01X39928Y-24581D02*
Y-23951D01*
X40084D01*
X40147Y-23983D01*
X40194Y-24025D01*
X40233Y-24088D01*
X40264Y-24161D01*
X40272Y-24266D01*
X40264Y-24371D01*
X40233Y-24445D01*
X40194Y-24508D01*
X40147Y-24550D01*
X40084Y-24581D01*
X39928D01*
G01X40534D02*
X40730Y-23951D01*
X40926Y-24581D01*
G01X40855Y-24361D02*
X40605D01*
G01X41360Y-23951D02*
Y-24581D01*
G01X41180Y-23951D02*
X41540D01*
G01X42147Y-24581D02*
X41833D01*
Y-23951D01*
X42147D01*
G01X42021Y-24256D02*
X41833D01*
G01X37990Y33919D02*
Y34919D01*
X38302D01*
X38402Y34868D01*
X38465Y34802D01*
X38490Y34669D01*
X38465Y34535D01*
X38390Y34452D01*
X38302Y34402D01*
X37990D01*
G01X38302D02*
X38490Y33919D01*
G01X39490D02*
X38990D01*
Y34919D01*
X39490D01*
G01X39290Y34435D02*
X38990D01*
G01X39927Y34919D02*
X40240Y33919D01*
X40552Y34919D01*
G01X41365Y29919D02*
Y26919D01*
G01Y29919D02*
Y35919D01*
G01X45977Y-39198D02*
X46077Y-39281D01*
X46190Y-39331D01*
X46290D01*
X46390Y-39281D01*
X46465Y-39198D01*
X46502Y-39081D01*
X46477Y-38965D01*
X46415Y-38865D01*
X46302Y-38798D01*
X46152Y-38765D01*
X46065Y-38698D01*
X46027Y-38581D01*
X46052Y-38465D01*
X46115Y-38382D01*
X46202Y-38331D01*
X46290D01*
X46377Y-38365D01*
X46452Y-38448D01*
G01X47515Y-38415D02*
X47440Y-38365D01*
X47352Y-38331D01*
X47252D01*
X47140Y-38382D01*
X47052Y-38465D01*
X46990Y-38565D01*
X46940Y-38731D01*
X46927Y-38881D01*
X46952Y-39031D01*
X46990Y-39131D01*
X47065Y-39232D01*
X47152Y-39298D01*
X47240Y-39331D01*
X47327D01*
X47415Y-39298D01*
X47490Y-39248D01*
X47552Y-39182D01*
G01X47927Y-39331D02*
X48240Y-38331D01*
X48552Y-39331D01*
G01X48440Y-38981D02*
X48040D01*
G01X48990Y-38331D02*
Y-39331D01*
X49490D01*
G01X50490D02*
X49990D01*
Y-38331D01*
X50490D01*
G01X50290Y-38815D02*
X49990D01*
G01X45365Y-22831D02*
Y-40831D01*
G01X70365Y-37831D02*
X45365D01*
G01X45977Y-35198D02*
X46077Y-35281D01*
X46190Y-35331D01*
X46290D01*
X46390Y-35281D01*
X46465Y-35198D01*
X46502Y-35081D01*
X46477Y-34965D01*
X46415Y-34865D01*
X46302Y-34798D01*
X46152Y-34765D01*
X46065Y-34698D01*
X46027Y-34581D01*
X46052Y-34465D01*
X46115Y-34382D01*
X46202Y-34331D01*
X46290D01*
X46377Y-34365D01*
X46452Y-34448D01*
G01X47090Y-34331D02*
X47390D01*
G01X47240D02*
Y-35331D01*
G01X47090D02*
X47390D01*
G01X48002Y-34331D02*
X48477D01*
X48002Y-35331D01*
X48477D01*
G01X49490D02*
X48990D01*
Y-34331D01*
X49490D01*
G01X49290Y-34815D02*
X48990D01*
G01X87365Y-33831D02*
X45365D01*
G01X87365Y-27831D02*
X45365D01*
G01X46141Y-26004D02*
Y-25004D01*
X46441D01*
X46541Y-25054D01*
X46616Y-25171D01*
X46641Y-25304D01*
X46616Y-25437D01*
X46553Y-25537D01*
X46441Y-25587D01*
X46141D01*
G01X47203Y-25554D02*
X47603D01*
X47566Y-25437D01*
X47503Y-25371D01*
X47416Y-25337D01*
X47328Y-25354D01*
X47253Y-25404D01*
X47203Y-25521D01*
X47178Y-25621D01*
Y-25721D01*
X47203Y-25821D01*
X47266Y-25921D01*
X47341Y-25987D01*
X47428Y-26004D01*
X47516Y-25971D01*
X47603Y-25871D01*
G01X48216Y-26004D02*
Y-25337D01*
G01Y-25471D02*
X48278Y-25404D01*
X48341Y-25354D01*
X48428Y-25337D01*
X48491Y-25354D01*
X48566Y-25404D01*
G01X49203Y-25887D02*
X49266Y-25954D01*
X49353Y-26004D01*
X49428D01*
X49503Y-25971D01*
X49553Y-25921D01*
X49578Y-25854D01*
X49566Y-25754D01*
X49516Y-25704D01*
X49291Y-25604D01*
X49241Y-25487D01*
X49266Y-25404D01*
X49316Y-25354D01*
X49391Y-25337D01*
X49466Y-25354D01*
X49541Y-25404D01*
G01X50391Y-26004D02*
X50316Y-25987D01*
X50241Y-25921D01*
X50191Y-25804D01*
X50166Y-25671D01*
X50191Y-25537D01*
X50241Y-25421D01*
X50316Y-25354D01*
X50391Y-25337D01*
X50466Y-25354D01*
X50541Y-25421D01*
X50591Y-25537D01*
X50603Y-25671D01*
X50591Y-25804D01*
X50541Y-25921D01*
X50466Y-25987D01*
X50391Y-26004D01*
G01X51616D02*
Y-25337D01*
G01Y-25454D02*
X51566Y-25387D01*
X51491Y-25354D01*
X51403Y-25337D01*
X51316Y-25371D01*
X51241Y-25437D01*
X51191Y-25537D01*
X51166Y-25671D01*
X51191Y-25804D01*
X51241Y-25904D01*
X51316Y-25971D01*
X51403Y-26004D01*
X51491Y-25987D01*
X51566Y-25937D01*
X51616Y-25871D01*
G01X52178Y-26004D02*
Y-25337D01*
G01Y-25504D02*
X52228Y-25421D01*
X52303Y-25354D01*
X52403Y-25337D01*
X52491Y-25354D01*
X52566Y-25421D01*
X52603Y-25537D01*
Y-26004D01*
G01X53391D02*
Y-25004D01*
G01X54366Y-26187D02*
X54416Y-25971D01*
G01X56153Y-25171D02*
X56228Y-25071D01*
X56316Y-25021D01*
X56416Y-25004D01*
X56541Y-25037D01*
X56628Y-25121D01*
X56653Y-25221D01*
X56641Y-25321D01*
X56591Y-25404D01*
X56341Y-25571D01*
X56228Y-25687D01*
X56153Y-25854D01*
X56128Y-26004D01*
X56653D01*
G01X57153Y-25587D02*
X57241Y-25471D01*
X57316Y-25404D01*
X57416Y-25371D01*
X57503Y-25404D01*
X57566Y-25471D01*
X57616Y-25571D01*
X57628Y-25687D01*
X57616Y-25787D01*
X57566Y-25887D01*
X57491Y-25971D01*
X57403Y-26004D01*
X57303Y-25971D01*
X57216Y-25871D01*
X57166Y-25721D01*
X57153Y-25554D01*
X57178Y-25337D01*
X57216Y-25221D01*
X57278Y-25104D01*
X57366Y-25021D01*
X57453Y-25004D01*
X57541Y-25037D01*
X57603Y-25121D01*
G01X59666Y-25087D02*
X59591Y-25037D01*
X59503Y-25004D01*
X59403D01*
X59291Y-25054D01*
X59203Y-25137D01*
X59141Y-25237D01*
X59091Y-25404D01*
X59078Y-25554D01*
X59103Y-25704D01*
X59141Y-25804D01*
X59216Y-25904D01*
X59303Y-25971D01*
X59391Y-26004D01*
X59478D01*
X59566Y-25971D01*
X59641Y-25921D01*
X59703Y-25854D01*
G01X60391Y-26004D02*
X60316Y-25987D01*
X60241Y-25921D01*
X60191Y-25804D01*
X60166Y-25671D01*
X60191Y-25537D01*
X60241Y-25421D01*
X60316Y-25354D01*
X60391Y-25337D01*
X60466Y-25354D01*
X60541Y-25421D01*
X60591Y-25537D01*
X60603Y-25671D01*
X60591Y-25804D01*
X60541Y-25921D01*
X60466Y-25987D01*
X60391Y-26004D01*
G01X61391D02*
X61316Y-25987D01*
X61241Y-25921D01*
X61191Y-25804D01*
X61166Y-25671D01*
X61191Y-25537D01*
X61241Y-25421D01*
X61316Y-25354D01*
X61391Y-25337D01*
X61466Y-25354D01*
X61541Y-25421D01*
X61591Y-25537D01*
X61603Y-25671D01*
X61591Y-25804D01*
X61541Y-25921D01*
X61466Y-25987D01*
X61391Y-26004D01*
G01X62178D02*
Y-25004D01*
G01X62578Y-25337D02*
X62178Y-25721D01*
G01X62341Y-25571D02*
X62603Y-26004D01*
G01X64128Y-25871D02*
X64228Y-25954D01*
X64341Y-26004D01*
X64441D01*
X64541Y-25954D01*
X64616Y-25871D01*
X64653Y-25754D01*
X64628Y-25637D01*
X64566Y-25537D01*
X64453Y-25471D01*
X64303Y-25437D01*
X64216Y-25371D01*
X64178Y-25254D01*
X64203Y-25137D01*
X64266Y-25054D01*
X64353Y-25004D01*
X64441D01*
X64528Y-25037D01*
X64603Y-25121D01*
G01X65391Y-25004D02*
Y-26004D01*
G01X65216Y-25337D02*
X65566D01*
G01X66366Y-26187D02*
X66416Y-25971D01*
G01X68141Y-26004D02*
Y-25004D01*
X68453D01*
X68553Y-25054D01*
X68616Y-25121D01*
X68641Y-25254D01*
X68616Y-25387D01*
X68541Y-25471D01*
X68453Y-25521D01*
X68141D01*
G01X68453D02*
X68641Y-26004D01*
G01X69391D02*
X69316Y-25987D01*
X69241Y-25921D01*
X69191Y-25804D01*
X69166Y-25671D01*
X69191Y-25537D01*
X69241Y-25421D01*
X69316Y-25354D01*
X69391Y-25337D01*
X69466Y-25354D01*
X69541Y-25421D01*
X69591Y-25537D01*
X69603Y-25671D01*
X69591Y-25804D01*
X69541Y-25921D01*
X69466Y-25987D01*
X69391Y-26004D01*
G01X70591Y-25421D02*
X70503Y-25354D01*
X70428Y-25337D01*
X70328Y-25371D01*
X70253Y-25437D01*
X70203Y-25554D01*
X70191Y-25671D01*
X70203Y-25787D01*
X70253Y-25887D01*
X70328Y-25971D01*
X70428Y-26004D01*
X70516Y-25971D01*
X70591Y-25904D01*
G01X71178Y-26004D02*
Y-25004D01*
G01Y-25487D02*
X71241Y-25404D01*
X71303Y-25354D01*
X71403Y-25337D01*
X71478Y-25354D01*
X71566Y-25421D01*
X71603Y-25521D01*
Y-26004D01*
G01X72203Y-25554D02*
X72603D01*
X72566Y-25437D01*
X72503Y-25371D01*
X72416Y-25337D01*
X72328Y-25354D01*
X72253Y-25404D01*
X72203Y-25521D01*
X72178Y-25621D01*
Y-25721D01*
X72203Y-25821D01*
X72266Y-25921D01*
X72341Y-25987D01*
X72428Y-26004D01*
X72516Y-25971D01*
X72603Y-25871D01*
G01X73203Y-25887D02*
X73266Y-25954D01*
X73353Y-26004D01*
X73428D01*
X73503Y-25971D01*
X73553Y-25921D01*
X73578Y-25854D01*
X73566Y-25754D01*
X73516Y-25704D01*
X73291Y-25604D01*
X73241Y-25487D01*
X73266Y-25404D01*
X73316Y-25354D01*
X73391Y-25337D01*
X73466Y-25354D01*
X73541Y-25404D01*
G01X74391Y-25004D02*
Y-26004D01*
G01X74216Y-25337D02*
X74566D01*
G01X75203Y-25554D02*
X75603D01*
X75566Y-25437D01*
X75503Y-25371D01*
X75416Y-25337D01*
X75328Y-25354D01*
X75253Y-25404D01*
X75203Y-25521D01*
X75178Y-25621D01*
Y-25721D01*
X75203Y-25821D01*
X75266Y-25921D01*
X75341Y-25987D01*
X75428Y-26004D01*
X75516Y-25971D01*
X75603Y-25871D01*
G01X76216Y-26004D02*
Y-25337D01*
G01Y-25471D02*
X76278Y-25404D01*
X76341Y-25354D01*
X76428Y-25337D01*
X76491Y-25354D01*
X76566Y-25404D01*
G01X78103Y-26004D02*
Y-25004D01*
X78678Y-26004D01*
Y-25004D01*
G01X79391Y-26004D02*
Y-25554D01*
X79141Y-25004D01*
G01X79641D02*
X79391Y-25554D01*
G01X80366Y-26187D02*
X80416Y-25971D01*
G01X82391Y-26004D02*
Y-25004D01*
X82241Y-25204D01*
G01Y-26004D02*
X82541D01*
G01X83541D02*
Y-25004D01*
X83078Y-25721D01*
X83703D01*
G01X84153Y-25587D02*
X84241Y-25471D01*
X84316Y-25404D01*
X84416Y-25371D01*
X84503Y-25404D01*
X84566Y-25471D01*
X84616Y-25571D01*
X84628Y-25687D01*
X84616Y-25787D01*
X84566Y-25887D01*
X84491Y-25971D01*
X84403Y-26004D01*
X84303Y-25971D01*
X84216Y-25871D01*
X84166Y-25721D01*
X84153Y-25554D01*
X84178Y-25337D01*
X84216Y-25221D01*
X84278Y-25104D01*
X84366Y-25021D01*
X84453Y-25004D01*
X84541Y-25037D01*
X84603Y-25121D01*
G01X85153Y-25171D02*
X85228Y-25071D01*
X85316Y-25021D01*
X85416Y-25004D01*
X85541Y-25037D01*
X85628Y-25121D01*
X85653Y-25221D01*
X85641Y-25321D01*
X85591Y-25404D01*
X85341Y-25571D01*
X85228Y-25687D01*
X85153Y-25854D01*
X85128Y-26004D01*
X85653D01*
G01X86391Y-25004D02*
X86291Y-25037D01*
X86216Y-25121D01*
X86166Y-25221D01*
X86128Y-25354D01*
X86116Y-25504D01*
X86128Y-25654D01*
X86166Y-25787D01*
X86216Y-25887D01*
X86291Y-25971D01*
X86391Y-26004D01*
X86491Y-25971D01*
X86566Y-25887D01*
X86616Y-25787D01*
X86653Y-25654D01*
X86666Y-25504D01*
X86653Y-25354D01*
X86616Y-25221D01*
X86566Y-25121D01*
X86491Y-25037D01*
X86391Y-25004D01*
G01X48465Y33919D02*
Y34919D01*
X48715D01*
X48815Y34868D01*
X48890Y34802D01*
X48952Y34702D01*
X49002Y34585D01*
X49015Y34419D01*
X49002Y34252D01*
X48952Y34135D01*
X48890Y34035D01*
X48815Y33969D01*
X48715Y33919D01*
X48465D01*
G01X49990D02*
X49490D01*
Y34919D01*
X49990D01*
G01X49790Y34435D02*
X49490D01*
G01X50477Y34052D02*
X50577Y33969D01*
X50690Y33919D01*
X50790D01*
X50890Y33969D01*
X50965Y34052D01*
X51002Y34169D01*
X50977Y34285D01*
X50915Y34385D01*
X50802Y34452D01*
X50652Y34485D01*
X50565Y34552D01*
X50527Y34669D01*
X50552Y34785D01*
X50615Y34868D01*
X50702Y34919D01*
X50790D01*
X50877Y34885D01*
X50952Y34802D01*
G01X52015Y34835D02*
X51940Y34885D01*
X51852Y34919D01*
X51752D01*
X51640Y34868D01*
X51552Y34785D01*
X51490Y34685D01*
X51440Y34519D01*
X51427Y34369D01*
X51452Y34219D01*
X51490Y34119D01*
X51565Y34018D01*
X51652Y33952D01*
X51740Y33919D01*
X51827D01*
X51915Y33952D01*
X51990Y34002D01*
X52052Y34068D01*
G01X52490Y33919D02*
Y34919D01*
X52802D01*
X52902Y34868D01*
X52965Y34802D01*
X52990Y34669D01*
X52965Y34535D01*
X52890Y34452D01*
X52802Y34402D01*
X52490D01*
G01X52802D02*
X52990Y33919D01*
G01X53590Y34919D02*
X53890D01*
G01X53740D02*
Y33919D01*
G01X53590D02*
X53890D01*
G01X54490D02*
Y34919D01*
X54790D01*
X54890Y34868D01*
X54965Y34752D01*
X54990Y34619D01*
X54965Y34485D01*
X54902Y34385D01*
X54790Y34335D01*
X54490D01*
G01X55740Y34919D02*
Y33919D01*
G01X55452Y34919D02*
X56027D01*
G01X56590D02*
X56890D01*
G01X56740D02*
Y33919D01*
G01X56590D02*
X56890D01*
G01X57740D02*
X57640Y33935D01*
X57552Y34002D01*
X57477Y34102D01*
X57427Y34219D01*
X57402Y34352D01*
Y34485D01*
X57427Y34619D01*
X57477Y34735D01*
X57552Y34835D01*
X57640Y34902D01*
X57740Y34919D01*
X57840Y34902D01*
X57927Y34835D01*
X58002Y34735D01*
X58052Y34619D01*
X58077Y34485D01*
Y34352D01*
X58052Y34219D01*
X58002Y34102D01*
X57927Y34002D01*
X57840Y33935D01*
X57740Y33919D01*
G01X58452D02*
Y34919D01*
X59027Y33919D01*
Y34919D01*
G01X50365Y-37831D02*
Y-33831D01*
G01X51502Y-35331D02*
Y-34331D01*
X51977D01*
G01X51802Y-34815D02*
X51502D01*
G01X52477Y-35198D02*
X52577Y-35281D01*
X52690Y-35331D01*
X52790D01*
X52890Y-35281D01*
X52965Y-35198D01*
X53002Y-35081D01*
X52977Y-34965D01*
X52915Y-34865D01*
X52802Y-34798D01*
X52652Y-34765D01*
X52565Y-34698D01*
X52527Y-34581D01*
X52552Y-34465D01*
X52615Y-34382D01*
X52702Y-34331D01*
X52790D01*
X52877Y-34365D01*
X52952Y-34448D01*
G01X54015Y-34415D02*
X53940Y-34365D01*
X53852Y-34331D01*
X53752D01*
X53640Y-34382D01*
X53552Y-34465D01*
X53490Y-34565D01*
X53440Y-34731D01*
X53427Y-34881D01*
X53452Y-35031D01*
X53490Y-35131D01*
X53565Y-35232D01*
X53652Y-35298D01*
X53740Y-35331D01*
X53827D01*
X53915Y-35298D01*
X53990Y-35248D01*
X54052Y-35182D01*
G01X54415Y-35331D02*
Y-34331D01*
X54740Y-35165D01*
X55065Y-34331D01*
Y-35331D01*
G01X56452D02*
Y-34331D01*
X57027Y-35331D01*
Y-34331D01*
G01X57740Y-35331D02*
X57640Y-35315D01*
X57552Y-35248D01*
X57477Y-35148D01*
X57427Y-35031D01*
X57402Y-34898D01*
Y-34765D01*
X57427Y-34631D01*
X57477Y-34515D01*
X57552Y-34415D01*
X57640Y-34348D01*
X57740Y-34331D01*
X57840Y-34348D01*
X57927Y-34415D01*
X58002Y-34515D01*
X58052Y-34631D01*
X58077Y-34765D01*
Y-34898D01*
X58052Y-35031D01*
X58002Y-35148D01*
X57927Y-35248D01*
X57840Y-35315D01*
X57740Y-35331D01*
G01X54365Y-37831D02*
Y-40831D01*
G01X58990Y36919D02*
Y37919D01*
X59302D01*
X59402Y37868D01*
X59465Y37802D01*
X59490Y37669D01*
X59465Y37535D01*
X59390Y37452D01*
X59302Y37402D01*
X58990D01*
G01X59302D02*
X59490Y36919D01*
G01X60490D02*
X59990D01*
Y37919D01*
X60490D01*
G01X60290Y37435D02*
X59990D01*
G01X60927Y37919D02*
X61240Y36919D01*
X61552Y37919D01*
G01X62090D02*
X62390D01*
G01X62240D02*
Y36919D01*
G01X62090D02*
X62390D01*
G01X62977Y37052D02*
X63077Y36969D01*
X63190Y36919D01*
X63290D01*
X63390Y36969D01*
X63465Y37052D01*
X63502Y37169D01*
X63477Y37285D01*
X63415Y37385D01*
X63302Y37452D01*
X63152Y37485D01*
X63065Y37552D01*
X63027Y37669D01*
X63052Y37785D01*
X63115Y37868D01*
X63202Y37919D01*
X63290D01*
X63377Y37885D01*
X63452Y37802D01*
G01X64090Y37919D02*
X64390D01*
G01X64240D02*
Y36919D01*
G01X64090D02*
X64390D01*
G01X65240D02*
X65140Y36935D01*
X65052Y37002D01*
X64977Y37102D01*
X64927Y37219D01*
X64902Y37352D01*
Y37485D01*
X64927Y37619D01*
X64977Y37735D01*
X65052Y37835D01*
X65140Y37902D01*
X65240Y37919D01*
X65340Y37902D01*
X65427Y37835D01*
X65502Y37735D01*
X65552Y37619D01*
X65577Y37485D01*
Y37352D01*
X65552Y37219D01*
X65502Y37102D01*
X65427Y37002D01*
X65340Y36935D01*
X65240Y36919D01*
G01X65952D02*
Y37919D01*
X66527Y36919D01*
Y37919D01*
G01X66977Y37052D02*
X67077Y36969D01*
X67190Y36919D01*
X67290D01*
X67390Y36969D01*
X67465Y37052D01*
X67502Y37169D01*
X67477Y37285D01*
X67415Y37385D01*
X67302Y37452D01*
X67152Y37485D01*
X67065Y37552D01*
X67027Y37669D01*
X67052Y37785D01*
X67115Y37868D01*
X67202Y37919D01*
X67290D01*
X67377Y37885D01*
X67452Y37802D01*
G01X62365Y-37831D02*
Y-33831D01*
G01X63465Y-35331D02*
Y-34331D01*
X63715D01*
X63815Y-34382D01*
X63890Y-34448D01*
X63952Y-34548D01*
X64002Y-34665D01*
X64015Y-34831D01*
X64002Y-34998D01*
X63952Y-35115D01*
X63890Y-35215D01*
X63815Y-35281D01*
X63715Y-35331D01*
X63465D01*
G01X64365Y-34331D02*
X64540Y-35331D01*
X64740Y-34331D01*
X64940Y-35331D01*
X65115Y-34331D01*
G01X65815Y-34831D02*
X66065D01*
Y-35131D01*
X65990Y-35232D01*
X65902Y-35298D01*
X65777Y-35331D01*
X65652Y-35298D01*
X65565Y-35232D01*
X65490Y-35131D01*
X65440Y-35015D01*
X65415Y-34881D01*
Y-34765D01*
X65440Y-34665D01*
X65490Y-34548D01*
X65565Y-34448D01*
X65640Y-34382D01*
X65740Y-34331D01*
X65827D01*
X65927Y-34365D01*
X66002Y-34431D01*
G01X67452Y-35331D02*
Y-34331D01*
X68027Y-35331D01*
Y-34331D01*
G01X68740Y-35331D02*
X68640Y-35315D01*
X68552Y-35248D01*
X68477Y-35148D01*
X68427Y-35031D01*
X68402Y-34898D01*
Y-34765D01*
X68427Y-34631D01*
X68477Y-34515D01*
X68552Y-34415D01*
X68640Y-34348D01*
X68740Y-34331D01*
X68840Y-34348D01*
X68927Y-34415D01*
X69002Y-34515D01*
X69052Y-34631D01*
X69077Y-34765D01*
Y-34898D01*
X69052Y-35031D01*
X69002Y-35148D01*
X68927Y-35248D01*
X68840Y-35315D01*
X68740Y-35331D01*
G01X70365Y-40831D02*
Y-37831D01*
X87365D01*
G01X68365Y28919D02*
Y32919D01*
G01Y29919D02*
Y26919D01*
G01Y32919D02*
Y35919D01*
G01X71477Y-39198D02*
X71577Y-39281D01*
X71690Y-39331D01*
X71790D01*
X71890Y-39281D01*
X71965Y-39198D01*
X72002Y-39081D01*
X71977Y-38965D01*
X71915Y-38865D01*
X71802Y-38798D01*
X71652Y-38765D01*
X71565Y-38698D01*
X71527Y-38581D01*
X71552Y-38465D01*
X71615Y-38382D01*
X71702Y-38331D01*
X71790D01*
X71877Y-38365D01*
X71952Y-38448D01*
G01X72477Y-39331D02*
Y-38331D01*
G01X73002D02*
Y-39331D01*
G01Y-38831D02*
X72477D01*
G01X73990Y-39331D02*
X73490D01*
Y-38331D01*
X73990D01*
G01X73790Y-38815D02*
X73490D01*
G01X74990Y-39331D02*
X74490D01*
Y-38331D01*
X74990D01*
G01X74790Y-38815D02*
X74490D01*
G01X75740Y-38331D02*
Y-39331D01*
G01X75452Y-38331D02*
X76027D01*
G01X70965Y33919D02*
Y34919D01*
X71215D01*
X71315Y34868D01*
X71390Y34802D01*
X71452Y34702D01*
X71502Y34585D01*
X71515Y34419D01*
X71502Y34252D01*
X71452Y34135D01*
X71390Y34035D01*
X71315Y33969D01*
X71215Y33919D01*
X70965D01*
G01X71927D02*
X72240Y34919D01*
X72552Y33919D01*
G01X72440Y34269D02*
X72040D01*
G01X73240Y34919D02*
Y33919D01*
G01X72952Y34919D02*
X73527D01*
G01X74490Y33919D02*
X73990D01*
Y34919D01*
X74490D01*
G01X74290Y34435D02*
X73990D01*
G01X77365Y29919D02*
Y26919D01*
G01Y29919D02*
Y32919D01*
G01X78427Y33919D02*
X78740Y34919D01*
X79052Y33919D01*
G01X78940Y34269D02*
X78540D01*
G01X79490Y33919D02*
Y34919D01*
X79790D01*
X79890Y34868D01*
X79965Y34752D01*
X79990Y34619D01*
X79965Y34485D01*
X79902Y34385D01*
X79790Y34335D01*
X79490D01*
G01X80490Y33919D02*
Y34919D01*
X80790D01*
X80890Y34868D01*
X80965Y34752D01*
X80990Y34619D01*
X80965Y34485D01*
X80902Y34385D01*
X80790Y34335D01*
X80490D01*
G01X81490Y33919D02*
Y34919D01*
X81802D01*
X81902Y34868D01*
X81965Y34802D01*
X81990Y34669D01*
X81965Y34535D01*
X81890Y34452D01*
X81802Y34402D01*
X81490D01*
G01X81802D02*
X81990Y33919D01*
G01X82740D02*
X82640Y33935D01*
X82552Y34002D01*
X82477Y34102D01*
X82427Y34219D01*
X82402Y34352D01*
Y34485D01*
X82427Y34619D01*
X82477Y34735D01*
X82552Y34835D01*
X82640Y34902D01*
X82740Y34919D01*
X82840Y34902D01*
X82927Y34835D01*
X83002Y34735D01*
X83052Y34619D01*
X83077Y34485D01*
Y34352D01*
X83052Y34219D01*
X83002Y34102D01*
X82927Y34002D01*
X82840Y33935D01*
X82740Y33919D01*
G01X83427Y34919D02*
X83740Y33919D01*
X84052Y34919D01*
G01X84990Y33919D02*
X84490D01*
Y34919D01*
X84990D01*
G01X84790Y34435D02*
X84490D01*
G01X85465Y33919D02*
Y34919D01*
X85715D01*
X85815Y34868D01*
X85890Y34802D01*
X85952Y34702D01*
X86002Y34585D01*
X86015Y34419D01*
X86002Y34252D01*
X85952Y34135D01*
X85890Y34035D01*
X85815Y33969D01*
X85715Y33919D01*
X85465D01*
G01X77365Y32919D02*
Y35919D01*
G01X87365Y38919D02*
Y26919D01*
M02*
