G04 ================== begin FILE IDENTIFICATION RECORD ==================*
G04 Layout Name:  gps_breakout.brd*
G04 Film Name:    SILKSCREEN_TOP*
G04 File Format:  Gerber RS274X*
G04 File Origin:  Cadence Allegro 17.2-S071*
G04 Origin Date:  Thu Oct 22 15:29:20 2020*
G04 *
G04 Layer:  REF DES/SILKSCREEN_TOP*
G04 Layer:  PACKAGE GEOMETRY/SILKSCREEN_TOP*
G04 Layer:  COMPONENT VALUE/SILKSCREEN_TOP*
G04 Layer:  BOARD GEOMETRY/SILKSCREEN_TOP*
G04 Layer:  BOARD GEOMETRY/DESIGN_OUTLINE*
G04 *
G04 Offset:    (0.0000 0.0000)*
G04 Mirror:    No*
G04 Mode:      Positive*
G04 Rotation:  0*
G04 FullContactRelief:  No*
G04 UndefLineWidth:     0.1270*
G04 ================== end FILE IDENTIFICATION RECORD ====================*
%FSLAX24Y24*MOIN*%
%IR0*IPPOS*OFA0.00000B0.00000*MIA0B0*SFA1.00000B1.00000*%
%ADD10C,.006*%
%ADD11C,.016*%
%ADD12C,.001969*%
%ADD13C,.005*%
G75*
%LPD*%
G75*
G54D10*
G01X5201Y1608D02*
X1241D01*
G01X5201Y5728D02*
X1241D01*
G54D11*
G01X346Y3551D02*
X370D01*
G01X5768Y4280D02*
X5792D01*
G01X6445Y4906D02*
X6469D01*
G54D12*
G01X292Y2940D02*
X281Y2948D01*
X269Y2953D01*
X254D01*
X237Y2945D01*
X224Y2932D01*
X215Y2916D01*
X208Y2890D01*
X206Y2866D01*
X210Y2843D01*
X215Y2827D01*
X226Y2811D01*
X239Y2801D01*
X252Y2795D01*
X265D01*
X278Y2801D01*
X289Y2808D01*
X298Y2819D01*
G01X338Y2827D02*
X349Y2808D01*
X363Y2798D01*
X380Y2795D01*
X394Y2798D01*
X409Y2811D01*
X418Y2827D01*
X420Y2843D01*
X417Y2861D01*
X404Y2874D01*
X391Y2879D01*
X374D01*
G01X391D02*
X402Y2887D01*
X411Y2900D01*
X415Y2916D01*
X411Y2932D01*
X402Y2945D01*
X385Y2953D01*
X369Y2950D01*
X352Y2940D01*
G01X6037Y4269D02*
X6029Y4258D01*
X6024Y4245D01*
Y4230D01*
X6031Y4214D01*
X6045Y4201D01*
X6060Y4192D01*
X6087Y4184D01*
X6110Y4182D01*
X6134Y4186D01*
X6150Y4192D01*
X6165Y4203D01*
X6176Y4215D01*
X6181Y4228D01*
Y4241D01*
X6176Y4254D01*
X6168Y4265D01*
X6157Y4274D01*
G01X6181Y4354D02*
X6024D01*
X6055Y4332D01*
G01X6181D02*
Y4376D01*
G01X6745Y4505D02*
X6738Y4494D01*
X6732Y4481D01*
Y4466D01*
X6740Y4450D01*
X6753Y4437D01*
X6769Y4428D01*
X6795Y4420D01*
X6819Y4419D01*
X6843Y4422D01*
X6858Y4428D01*
X6874Y4439D01*
X6885Y4452D01*
X6890Y4465D01*
Y4477D01*
X6885Y4490D01*
X6877Y4501D01*
X6866Y4511D01*
G01X6759Y4556D02*
X6743Y4567D01*
X6735Y4580D01*
X6732Y4594D01*
X6738Y4613D01*
X6751Y4625D01*
X6766Y4629D01*
X6782Y4627D01*
X6795Y4620D01*
X6822Y4583D01*
X6840Y4567D01*
X6866Y4556D01*
X6890Y4552D01*
Y4629D01*
G54D13*
G01X0Y0D02*
Y7835D01*
X8465D01*
Y0D01*
X0D01*
G01X796Y7232D02*
Y6732D01*
G01X651Y7232D02*
X942D01*
G01X1433Y6732D02*
X1180D01*
Y7232D01*
X1433D01*
G01X1332Y6991D02*
X1180D01*
G01X1683Y6799D02*
X1734Y6757D01*
X1791Y6732D01*
X1842D01*
X1892Y6757D01*
X1930Y6799D01*
X1949Y6857D01*
X1937Y6916D01*
X1905Y6966D01*
X1848Y6999D01*
X1772Y7016D01*
X1728Y7049D01*
X1709Y7107D01*
X1721Y7166D01*
X1753Y7207D01*
X1797Y7232D01*
X1842D01*
X1886Y7216D01*
X1924Y7174D01*
G01X2453Y6732D02*
X2200D01*
Y7232D01*
X2453D01*
G01X2352Y6991D02*
X2200D01*
G01X2836Y6732D02*
X2786Y6741D01*
X2741Y6774D01*
X2703Y6824D01*
X2678Y6882D01*
X2665Y6949D01*
Y7016D01*
X2678Y7082D01*
X2703Y7141D01*
X2741Y7191D01*
X2786Y7224D01*
X2836Y7232D01*
X2887Y7224D01*
X2931Y7191D01*
X2969Y7141D01*
X2995Y7082D01*
X3007Y7016D01*
Y6949D01*
X2995Y6882D01*
X2969Y6824D01*
X2931Y6774D01*
X2887Y6741D01*
X2836Y6732D01*
G01X3264Y6899D02*
X3429D01*
G01X3730Y7232D02*
Y6732D01*
X3983D01*
G01X4290Y7232D02*
X4442D01*
G01X4366D02*
Y6732D01*
G01X4290D02*
X4442D01*
G01X4718Y7232D02*
X4876Y6732D01*
X5035Y7232D01*
G01X5247Y6832D02*
X5285Y6774D01*
X5336Y6741D01*
X5393Y6732D01*
X5443Y6741D01*
X5494Y6782D01*
X5526Y6832D01*
X5532Y6882D01*
X5519Y6941D01*
X5475Y6982D01*
X5431Y6999D01*
X5374D01*
G01X5431D02*
X5469Y7024D01*
X5500Y7066D01*
X5513Y7116D01*
X5500Y7166D01*
X5469Y7207D01*
X5412Y7232D01*
X5355Y7224D01*
X5298Y7191D01*
G01X5776Y6732D02*
Y7232D01*
X6017D01*
G01X5928Y6991D02*
X5776D01*
G01X5585Y5998D02*
Y5748D01*
X5691D01*
G01X5858D02*
Y5998D01*
X5826Y5948D01*
G01Y5748D02*
X5890D01*
M02*
